# xmcd CD database file
#
# Track frame offsets:
#	150
#	40393
#	64317
#	79308
#	110758
#	124433
#	147539
#	172549
#	214214
#	228578
#
# Disc length: 3403 seconds
#
# Revision: 0
# Processed by: cddbd v1.5.2PL0 Copyright (c) Steve Scherf et al.
# Submitted via: CDex 1.51
#
DISCID=990d490a
DTITLE=Frederik Köster - Die Verwandlung
DYEAR=2012
DGENRE=Jazz
TTITLE0=Yard Sale
TTITLE1=Highway Man
TTITLE2=Tief in den Wäldern ihres Herzens
TTITLE3=Tengo
TTITLE4=Die verlorene Zeit
TTITLE5=Das Streben nach Erleuchtung
TTITLE6=Occupy X
TTITLE7=Naoko
TTITLE8=Gleitflug
TTITLE9=Guru - Night Gleam
EXTD=YEAR: 2012
EXTT0=
EXTT1=
EXTT2=
EXTT3=
EXTT4=
EXTT5=
EXTT6=
EXTT7=
EXTT8=
EXTT9=
PLAYORDER=
